<?xml version="1.0" encoding="UTF-8" standalone="no"?>
<svg
   id="Layer_1"
   data-name="Layer 1"
   viewBox="0 0 24 24"
   width="512"
   height="512"
   version="1.1"
   sodipodi:docname="pause.svg"
   inkscape:version="1.4.3 (0d15f75, 2025-12-25)"
   xmlns:inkscape="http://www.inkscape.org/namespaces/inkscape"
   xmlns:sodipodi="http://sodipodi.sourceforge.net/DTD/sodipodi-0.dtd"
   xmlns="http://www.w3.org/2000/svg"
   xmlns:svg="http://www.w3.org/2000/svg">
  <defs
     id="defs2" />
  <sodipodi:namedview
     id="namedview2"
     pagecolor="#505050"
     bordercolor="#eeeeee"
     borderopacity="1"
     inkscape:showpageshadow="0"
     inkscape:pageopacity="0"
     inkscape:pagecheckerboard="0"
     inkscape:deskcolor="#d1d1d1"
     inkscape:zoom="1.5761719"
     inkscape:cx="251.87608"
     inkscape:cy="247.11772"
     inkscape:window-width="1920"
     inkscape:window-height="1009"
     inkscape:window-x="-8"
     inkscape:window-y="-8"
     inkscape:window-maximized="1"
     inkscape:current-layer="Layer_1" />
  <path
     id="path2"
     style="fill:#000000;stroke-width:1.73714;stroke-linecap:square;stroke-linejoin:round;paint-order:stroke fill markers"
     d="M 12 0 A 12 12 0 0 0 0 12 A 12 12 0 0 0 12 24 A 12 12 0 0 0 24 12 A 12 12 0 0 0 12 0 z M 8.535553 4.4411316 A 2.2046675 2.2046675 0 0 1 10.740234 6.645813 L 10.740234 17.354187 A 2.2046814 2.2046814 0 0 1 6.3308716 17.354187 L 6.3308716 6.645813 A 2.2046675 2.2046675 0 0 1 8.535553 4.4411316 z M 15.464447 4.4411316 A 2.2046675 2.2046675 0 0 1 17.669128 6.645813 L 17.669128 17.354187 A 2.2046814 2.2046814 0 0 1 13.259766 17.354187 L 13.259766 6.645813 A 2.2046675 2.2046675 0 0 1 15.464447 4.4411316 z " />
  <rect
     x="6.3457251"
     width="4.3977695"
     height="15.078067"
     id="rect1"
     style="display:none;fill:#f9f9f9;stroke-width:0.628253"
     y="4.4609666" />
  <rect
     x="13.256506"
     width="4.3977695"
     height="15.078067"
     id="rect2"
     style="display:none;fill:#f9f9f9;stroke-width:0.628253"
     y="4.4609666" />
</svg>
