<?xml version="1.0" encoding="UTF-8" standalone="no"?>
<svg
   id="Layer_1"
   data-name="Layer 1"
   viewBox="0 0 24 24"
   width="512"
   height="512"
   version="1.1"
   xmlns="http://www.w3.org/2000/svg"
   xmlns:svg="http://www.w3.org/2000/svg">
  <defs
     id="defs1" />
  <path
     id="path2"
     style="fill:#000000;stroke-width:1.73714;stroke-linecap:square;stroke-linejoin:round;paint-order:stroke fill markers"
     d="M 12 0 A 12 12 0 0 0 0 12 A 12 12 0 0 0 12 24 A 12 12 0 0 0 24 12 A 12 12 0 0 0 12 0 z M 8.3213196 4.2463989 C 8.6833298 4.2414447 9.0465668 4.3392053 9.3607178 4.5396423 L 9.3607178 4.5389099 L 18.611115 10.444611 C 19.781438 11.184085 19.779461 12.891449 18.607452 13.628174 L 9.3607178 19.554565 L 9.3607178 19.553467 C 8.522925 20.088783 7.0453541 19.432322 6.7543945 18.969452 C 6.4634348 18.506582 6.572619 5.4156706 6.7543945 5.1264954 C 6.9361699 4.8373201 7.7179694 4.2546589 8.3213196 4.2463989 z " />
  <path
     d="M 20.80951,12.102565 6.6308919,2.6481969 V 21.586199 C 8.7593929,19.882676 20.80951,12.102565 20.80951,12.102565 Z"
     id="path1"
     style="display:none;fill:#f9f9f9;fill-opacity:1;stroke-width:0.87203" />
</svg>
