<?xml version="1.0" encoding="UTF-8" standalone="no"?>
<svg
   id="Layer_1"
   data-name="Layer 1"
   viewBox="0 0 24 24"
   width="512"
   height="512"
   version="1.1"
   xmlns="http://www.w3.org/2000/svg"
   xmlns:svg="http://www.w3.org/2000/svg">
  <defs
     id="defs1" />
  <path
     d="m 19.183,0.365 c -1.122,-0.568 -2.398,-0.464 -3.412,0.28 L 5.619,9.361 C 5.373,9.542 5.157,9.751 4.974,9.982 V 0.998 c 0,-0.552 -0.447,-1 -1,-1 -0.553,0 -1,0.448 -1,1 v 22 c 0,0.552 0.447,1 1,1 0.553,0 1,-0.448 1,-1 v -8.984 c 0.182,0.231 0.398,0.441 0.645,0.621 l 10.152,8.725 c 0.581,0.427 1.248,0.643 1.923,0.643 0.503,0 1.01,-0.12 1.489,-0.363 1.122,-0.569 1.792,-1.659 1.792,-2.917 V 3.282 c 0,-1.258 -0.67,-2.348 -1.792,-2.917 z"
     id="path1" />
</svg>
