<?xml version="1.0" encoding="UTF-8" standalone="no"?>
<!-- Created with Inkscape (http://www.inkscape.org/) -->

<svg
   width="512"
   height="512"
   viewBox="0 0 512 512"
   version="1.1"
   id="svg1"
   xml:space="preserve"
   inkscape:version="1.4.3 (0d15f75, 2025-12-25)"
   sodipodi:docname="headphones.svg"
   xmlns:inkscape="http://www.inkscape.org/namespaces/inkscape"
   xmlns:sodipodi="http://sodipodi.sourceforge.net/DTD/sodipodi-0.dtd"
   xmlns="http://www.w3.org/2000/svg"
   xmlns:svg="http://www.w3.org/2000/svg"><sodipodi:namedview
     id="namedview1"
     pagecolor="#505050"
     bordercolor="#eeeeee"
     borderopacity="1"
     inkscape:showpageshadow="0"
     inkscape:pageopacity="0"
     inkscape:pagecheckerboard="0"
     inkscape:deskcolor="#d1d1d1"
     inkscape:document-units="px"
     inkscape:zoom="0.39404297"
     inkscape:cx="256.31722"
     inkscape:cy="255.04833"
     inkscape:window-width="1920"
     inkscape:window-height="1009"
     inkscape:window-x="-8"
     inkscape:window-y="-8"
     inkscape:window-maximized="1"
     inkscape:current-layer="layer1" /><defs
     id="defs1" /><g
     inkscape:label="Layer 1"
     inkscape:groupmode="layer"
     id="layer1"><path
       style="fill:#540000;stroke:none;fill-opacity:1"
       d="M 240,0.42437744 C 186.13589,7.4967041 136.74075,21.878326 94,57.435181 66.350433,80.437378 42.939541,108.73822 26.808643,141 -29.9865,254.59027 7.3383255,394.84625 111,467.28009 c 23.79245,16.62503 51.76485,29.60574 80,36.48843 32.87199,8.01297 66.41656,10.47306 100,5.94907 C 411.39346,493.49945 506.64285,389.43082 511.96063,268 517.47522,142.07474 426.44092,24.8508 301,3.9197388 281.39218,0.64797974 259.8624,-2.1835327 240,0.42437744 M 361,280 c 0,-24.40488 0.64896,-47.79675 -11.30942,-70 C 316.49442,148.36435 229.43713,131.80533 180.16975,185.01465 154.20122,213.06094 151,243.65829 151,280 c 13.05573,0 26.75804,-1.76379 36.95987,8.09335 C 199.67941,299.41699 197,316.18585 197,331 c 0,14.42065 3.38,33.73865 -3.13812,47 C 184.28676,397.48093 147.12822,399.81458 130,389.64737 116.93098,381.88971 116,368.57654 116,355 v -57 c 0,-26.77374 -2.01963,-54.02298 5.72067,-80 C 140.57005,154.74008 199.34398,116.43039 264,118.01465 322.52472,119.44867 374.78745,163.68365 390.57251,219 398.25781,245.93204 396,274.3009 396,302 v 52 c 0,14.32565 -0.77271,28.43982 -15,36.19983 C 363.43457,399.78055 326.53891,397.23343 317.52933,377 311.81796,364.17358 315,345.76141 315,332 c 0,-15.10925 -2.90674,-32.3782 9.04013,-43.90665 C 334.25064,278.24045 347.93787,280 361,280 Z"
       id="path1" /><path
       id="path2"
       style="fill:#ffffff;fill-opacity:1;stroke-width:36.628;stroke-linecap:square;stroke-linejoin:round;paint-order:stroke fill markers;stroke:#000000;stroke-opacity:1;stroke-dasharray:none"
       d="m 263.23747,117.0473 c -64.65602,-1.58426 -123.42992,36.72446 -142.2793,99.98438 -7.7403,25.97702 -5.7207,53.22626 -5.7207,80 v 57 c 0,13.57654 0.93098,26.88882 14,34.64648 17.12822,10.16721 54.28621,7.83445 63.86133,-11.64648 6.51812,-13.26135 3.13867,-32.57935 3.13867,-47 0,-14.81415 2.67852,-31.58261 -9.04102,-42.90625 -10.20183,-9.85714 -23.90325,-8.09375 -36.95898,-8.09375 0,-36.34171 3.20139,-66.93809 29.16992,-94.98438 49.26738,-53.20932 136.32533,-36.65127 169.52149,24.98438 11.95838,22.20325 11.30859,45.59512 11.30859,70 -13.06213,0 -26.74847,-1.75915 -36.95898,8.09375 -11.94687,11.52845 -9.04102,28.797 -9.04102,43.90625 0,13.76141 -3.18207,32.17358 2.5293,45 9.00958,20.23343 45.90527,22.77994 63.4707,13.19922 14.22729,-7.76001 15,-21.87357 15,-36.19922 v -52 c 0,-27.6991 2.25757,-56.06796 -5.42773,-83 C 374.02468,162.71533 321.76219,118.48133 263.23747,117.0473 Z" /></g></svg>
