<?xml version="1.0" encoding="UTF-8" standalone="no"?>
<svg
   id="Layer_1"
   data-name="Layer 1"
   viewBox="0 0 24 24"
   version="1.1"
   sodipodi:docname="logo.svg"
   inkscape:version="1.4.3 (0d15f75, 2025-12-25)"
   xmlns:inkscape="http://www.inkscape.org/namespaces/inkscape"
   xmlns:sodipodi="http://sodipodi.sourceforge.net/DTD/sodipodi-0.dtd"
   xmlns="http://www.w3.org/2000/svg"
   xmlns:svg="http://www.w3.org/2000/svg">
  <defs
     id="defs1" />
  <sodipodi:namedview
     id="namedview1"
     pagecolor="#505050"
     bordercolor="#eeeeee"
     borderopacity="1"
     inkscape:showpageshadow="0"
     inkscape:pageopacity="0"
     inkscape:pagecheckerboard="0"
     inkscape:deskcolor="#d1d1d1"
     inkscape:zoom="23.776466"
     inkscape:cx="8.306533"
     inkscape:cy="12.596489"
     inkscape:window-width="1920"
     inkscape:window-height="1009"
     inkscape:window-x="-8"
     inkscape:window-y="-8"
     inkscape:window-maximized="1"
     inkscape:current-layer="Layer_1" />
  <path
     style="baseline-shift:baseline;display:inline;overflow:visible;vector-effect:none;fill:#ffffff;stroke-linecap:round;stroke-linejoin:round;paint-order:stroke fill markers;enable-background:accumulate;stop-color:#000000"
     d="m 8.2011719,0.0859375 c -0.8026995,0 -1.4648438,0.66214427 -1.4648438,1.4648437 0,0.8026995 0.6621443,1.4648438 1.4648438,1.4648438 0.6877778,0 0.9760525,0.2461496 1.3027344,0.4628906 -0.4976398,0.5846558 -0.8671875,1.2822119 -0.8671875,2.109375 0,0.8929228 0.4273644,1.6232492 0.9980468,2.2265625 -1.6783392,0.087361 -3.3609446,0.2079816 -4.7167969,0.5 C 3.230905,8.6778067 1.9100153,9.142128 1.1640625,9.9042969 c -1.43396937,1.4647371 -1.43374572,3.8390791 0,5.3046871 1.4340583,1.465926 3.7906534,1.464722 5.2246094,0 0.1516175,-0.154802 0.3783831,-0.416857 0.5644531,-0.621093 0.1062603,0.507522 0.1965829,1.157492 0.2695312,1.402343 0.9848791,3.305751 3.0968028,6.030165 3.2480468,6.222657 l 1.123047,1.443359 a 0.51462145,0.51462145 0 0 0 0.8125,0 l 1.123047,-1.443359 0.002,-0.002 c 0.06429,-0.08193 0.191429,-0.257668 0.416016,-0.591796 0.225431,-0.335386 0.524581,-0.800736 0.853515,-1.361329 0.657869,-1.121184 1.434585,-2.623914 1.972656,-4.251953 0.07883,-0.2385 0.17449,-0.895678 0.285157,-1.408203 0.182733,0.20058 0.405305,0.458809 0.554687,0.611328 1.434046,1.464815 3.790564,1.464815 5.22461,0 1.434058,-1.464829 1.434058,-3.839858 0,-5.3046871 a 0.51462145,0.51462145 0 0 0 -0.002,0 l -0.0039,-0.00195 C 22.08382,9.1399798 20.760944,8.6754219 19.070312,8.3125 17.716258,8.0218299 16.035981,7.9033607 14.361328,7.8164062 c 0.572894,-0.6037717 1.001953,-1.3338176 1.001953,-2.2285156 0,-0.8275346 -0.368749,-1.5276416 -0.867187,-2.1132812 0.326623,-0.2149943 0.614191,-0.4589844 1.302734,-0.4589844 0.8027,0 1.464844,-0.6621446 1.464844,-1.4648438 0,-0.8026991 -0.662144,-1.4648437 -1.464844,-1.4648437 -1.758199,0 -2.958781,0.70251294 -3.798828,1.5410156 C 11.159951,0.7885688 9.9591957,0.0859375 8.2011719,0.0859375 Z m 0,1.0292969 c 1.7135285,0 2.7476511,0.6842765 3.4003911,1.4785156 a 0.51462145,0.51462145 0 0 0 0.796875,0 c 0.652742,-0.7942404 1.686862,-1.4785156 3.40039,-1.4785156 0.245871,0 0.435547,0.1896764 0.435547,0.4355468 0,0.2458705 -0.189676,0.4355469 -0.435547,0.4355469 -1.175439,0 -1.992747,0.4240358 -2.501953,0.921875 a 0.51462145,0.51462145 0 0 0 0.05859,0.7851563 c 0.592376,0.4259169 0.978515,1.1110486 0.978515,1.8945312 0,0.959449 -0.574216,1.7757221 -1.394531,2.1367188 a 0.51462145,0.51462145 0 0 0 -0.0059,0.9394531 c 0.0015,7.024e-4 0.01106,0.00509 0.02539,0.011719 a 0.51462145,0.51462145 0 0 0 0.205079,0.046875 c 2.079647,0.038359 4.083053,0.2508627 5.689453,0.5957031 1.6064,0.3448403 2.819173,0.8684654 3.246093,1.3046874 a 0.51462145,0.51462145 0 0 0 0.002,0 0.51462145,0.51462145 0 0 0 0,0.002 c 1.043537,1.067428 1.044443,2.798381 0,3.865234 -1.044908,1.067328 -2.708997,1.067328 -3.753906,0 -0.306535,-0.312974 -0.72508,-0.779713 -1.199219,-1.324218 a 0.51462145,0.51462145 0 0 0 -0.902343,0.314453 c -0.044,0.948458 -0.31311,1.789348 -0.449219,2.201172 -0.504395,1.526145 -1.25147,2.975381 -1.884766,4.054687 -0.316647,0.539653 -0.60321,0.988506 -0.818359,1.308594 -0.215149,0.320088 -0.381585,0.541584 -0.375,0.533203 a 0.51462145,0.51462145 0 0 0 0,0.002 L 12,22.503906 11.28125,21.580078 a 0.51462145,0.51462145 0 0 0 0,-0.002 c -0.07861,-0.1 -2.162066,-2.819167 -3.0742187,-5.880812 C 8.0701294,15.237753 7.8099152,14.406626 7.7734375,13.466797 A 0.51462145,0.51462145 0 0 0 6.8710937,13.148438 c -0.4808193,0.552737 -0.9063084,1.024786 -1.2167968,1.341796 -1.0449992,1.06742 -2.7090093,1.068117 -3.7539063,0 -1.04520959,-1.068437 -1.04498593,-2.79978 0,-3.867187 C 2.3263043,10.187874 3.5339514,9.6650899 5.1347656,9.3203125 6.7355798,8.9755351 8.7327843,8.7625796 10.806641,8.7226563 a 0.51462145,0.51462145 0 0 0 0.210937,-0.048828 c 0.03414,-0.016266 0.04628,-0.023795 0.03711,-0.019531 A 0.51462145,0.51462145 0 0 0 11.046875,7.71875 C 10.232673,7.3539372 9.6660156,6.542817 9.6660156,5.5878906 c 0,-0.7823466 0.3851364,-1.4642659 0.9765624,-1.890625 a 0.51462145,0.51462145 0 0 0 0.06055,-0.7851562 C 10.193435,2.4103832 9.3743559,1.9863281 8.2011719,1.9863281 c -0.2458701,0 -0.4355469,-0.1896767 -0.4355469,-0.4355469 0,-0.2458701 0.1896767,-0.4355468 0.4355469,-0.4355468 z"
     id="path4" />
  <path
     style="baseline-shift:baseline;display:inline;overflow:visible;vector-effect:none;stroke-linecap:round;stroke-linejoin:round;paint-order:stroke fill markers;enable-background:accumulate;stop-color:#000000"
     d="m 8.2008828,0.60103392 c -0.5242848,0 -0.9497913,0.42550648 -0.9497913,0.94979128 0,0.5242848 0.4255065,0.9497913 0.9497913,0.9497913 1.0561679,0 1.7152339,0.3602677 2.1407402,0.7791257 -0.718042,0.5176363 -1.190949,1.3550553 -1.190949,2.3076961 0,1.1596954 0.6922373,2.1554157 1.686251,2.6007955 -0.01398,0.0065 -0.02677,0.013712 -0.04082,0.020406 -4.2049738,0.080949 -8.0923096,0.8580658 -9.2641761,2.0554072 -1.23947766,1.266072 -1.23947767,3.318689 0,4.585712 1.2394776,1.267021 3.2497703,1.266071 4.4892479,0 0.3242237,-0.331034 0.7530535,-0.806764 1.2373258,-1.363471 0.039712,1.023158 0.3232719,1.911123 0.4563449,2.357784 0.9485159,3.183698 3.0460995,5.904941 3.1610245,6.051209 l 1.124167,1.445092 1.124167,-1.445092 c 0.114925,-0.146268 2.118557,-2.897025 3.161024,-6.051209 0.13736,-0.415609 0.427075,-1.308409 0.474896,-2.339232 0.477403,0.548255 0.90022,1.017779 1.22063,1.344919 1.239477,1.266071 3.249771,1.266071 4.489248,0 1.239477,-1.266073 1.239477,-3.31964 0,-4.585712 h -0.0019 C 21.293463,9.0638147 17.390956,8.2864159 13.174301,8.2086396 c -0.009,-0.00416 -0.01885,-0.0089 -0.02783,-0.012986 1.002235,-0.4410542 1.702946,-1.4425525 1.702946,-2.6082159 0,-0.9535906 -0.472861,-1.79377 -1.192803,-2.3114063 0.425507,-0.4160085 1.083578,-0.7754155 2.142595,-0.7754155 0.524285,0 0.949791,-0.4255065 0.949791,-0.9497913 0,-0.5242848 -0.425506,-0.94979129 -0.949791,-0.94979129 -1.855892,0 -3.063077,0.77019169 -3.799165,1.66584489 C 11.263959,1.3712256 10.056775,0.60103392 8.2008828,0.60103392 Z"
     id="path5" />
  <path
     d="m 10.130859,19.026986 h 3.737428 c -0.247895,0.506238 -0.49579,0.94884 -0.72564,1.289816 -0.274489,0.40651 -0.708544,0.609766 -1.143549,0.609766 -0.435004,0 -0.869059,-0.203256 -1.143548,-0.609766 -0.22985,-0.340026 -0.476796,-0.782628 -0.725641,-1.289816 z"
     style="display:inline;fill:#f7b801;fill-opacity:1;stroke-width:0.949792"
     id="path1-4"
     sodipodi:nodetypes="cccsccc" />
  <path
     id="rect1"
     style="fill:#f7b801;stroke-width:34.7889;stroke-linecap:square;stroke-linejoin:round;paint-order:stroke fill markers"
     d="m 8.8353433,9.6098044 c 0,0 1.4431087,-0.3799166 3.1647047,-0.3799166 1.721597,0 3.164704,0.3799166 3.164704,0.3799166 l 0.380241,1.3506036 H 8.455102 Z"
     sodipodi:nodetypes="czcccc" />
  <path
     d="M 8.7156697,15.704931 H 15.282526 C 15.108715,16.35079 14.90166,16.993798 14.67656,17.604514 H 9.3225862 C 9.096536,16.993798 8.8904312,16.35079 8.7166194,15.704931 Z"
     style="display:inline;fill:#f7b801;fill-opacity:1;stroke-width:0.949792"
     id="path1-1" />
  <path
     d="m 8.199933,12.382879 h 7.59833 v 0.474895 c 0,0.447352 -0.04369,0.927946 -0.115875,1.424687 H 8.3158075 C 8.2436233,13.78572 8.199933,13.305126 8.199933,12.857774 Z"
     style="display:inline;fill:#f7b801;fill-opacity:1;stroke-width:0.949792"
     id="path1-15" />
  <path
     id="path2"
     style="fill:#cccccc;stroke-width:34.7889;stroke-linecap:square;stroke-linejoin:round;paint-order:stroke fill markers"
     d="m 5.4633164,13.756205 c -0.6945238,0.694523 -1.2514812,0.703812 -1.7818866,0.703812 -1.0608107,0 -1.9207675,-0.859957 -1.9207674,-1.920768 4e-7,-1.06081 0.9556803,-1.864272 2.0902469,-2.174985 C 4.985476,10.053551 6.8756452,9.7969798 6.8756452,9.7969798 6.7290139,11.710004 6.1578402,13.06168 5.4633164,13.756205 Z"
     sodipodi:nodetypes="zsszcz" />
  <path
     id="path2-1"
     style="fill:#cccccc;stroke-width:34.7889;stroke-linecap:square;stroke-linejoin:round;paint-order:stroke fill markers"
     d="m 18.523204,13.756205 c 0.694523,0.694523 1.251481,0.703812 1.781887,0.703812 1.06081,0 1.920767,-0.859957 1.920767,-1.920768 0,-1.06081 -0.955681,-1.864272 -2.090248,-2.174985 -1.134565,-0.310713 -3.024735,-0.5672842 -3.024735,-0.5672842 0.146631,1.9130242 0.717804,3.2647002 1.412329,3.9592252 z"
     sodipodi:nodetypes="zsszcz" />
  <circle
     style="fill:#cccccc;fill-opacity:1;stroke-width:34.7889;stroke-linecap:square;stroke-linejoin:round;paint-order:stroke fill markers"
     id="path3"
     cx="12.000048"
     cy="5.5560913"
     r="1.7371647" />
</svg>
