<?xml version="1.0" encoding="UTF-8" standalone="no"?>
<!-- Created with Inkscape (http://www.inkscape.org/) -->

<svg
   width="512"
   height="512"
   viewBox="0 0 512 512"
   version="1.1"
   id="svg1"
   xml:space="preserve"
   inkscape:version="1.4.2 (ebf0e940d0, 2025-05-08)"
   sodipodi:docname="logo.svg"
   xmlns:inkscape="http://www.inkscape.org/namespaces/inkscape"
   xmlns:sodipodi="http://sodipodi.sourceforge.net/DTD/sodipodi-0.dtd"
   xmlns="http://www.w3.org/2000/svg"
   xmlns:svg="http://www.w3.org/2000/svg"><sodipodi:namedview
     id="namedview1"
     pagecolor="#505050"
     bordercolor="#eeeeee"
     borderopacity="1"
     inkscape:showpageshadow="0"
     inkscape:pageopacity="0"
     inkscape:pagecheckerboard="0"
     inkscape:deskcolor="#d1d1d1"
     inkscape:document-units="px"
     inkscape:zoom="1.5761719"
     inkscape:cx="260.75836"
     inkscape:cy="257.58612"
     inkscape:window-width="1920"
     inkscape:window-height="1007"
     inkscape:window-x="0"
     inkscape:window-y="0"
     inkscape:window-maximized="1"
     inkscape:current-layer="layer1" /><defs
     id="defs1" /><g
     inkscape:label="Layer 1"
     inkscape:groupmode="layer"
     id="layer1"><path
       style="fill:#540000;fill-opacity:1;stroke:none"
       d="M 240,0.42437744 C 186.13589,7.4967041 136.74075,21.878326 94,57.435181 66.350433,80.437378 42.939541,108.73822 26.808643,141 -29.9865,254.59027 7.3383255,394.84625 111,467.28009 c 23.79245,16.62503 51.76485,29.60574 80,36.48843 32.87199,8.01297 66.41656,10.47306 100,5.94907 C 411.39346,493.49945 506.64285,389.43082 511.96063,268 517.47522,142.07474 426.44092,24.8508 301,3.9197388 281.39218,0.64797974 259.8624,-2.1835327 240,0.42437744"
       id="path1"
       sodipodi:nodetypes="csssssssc" /><path
       id="path3"
       style="baseline-shift:baseline;display:inline;overflow:visible;vector-effect:none;stroke-linecap:square;stroke-linejoin:round;paint-order:stroke fill markers;enable-background:accumulate;stop-color:#000000"
       d="M 263.68555,98.738281 C 191.5303,96.970268 124.65293,140.49729 103.40625,211.80273 c -8.990134,30.17156 -6.482422,59.37576 -6.482422,85.22852 v 57 c 0,7.20688 0.03281,15.65692 2.925781,24.94922 2.892971,9.2923 9.714691,19.31685 20.039061,25.44531 14.09147,8.36461 30.39006,9.93385 46.62305,7.6875 16.23299,-2.24635 34.22663,-9.10648 43.02344,-27.0039 10.7293,-21.82916 5.01562,-43.51871 5.01562,-55.07813 0,-6.3033 0.82613,-14.81143 -0.22851,-24.70313 -1.05465,-9.89168 -4.79058,-22.08787 -14.40039,-31.37304 -8.43971,-8.15456 -19.12573,-11.65428 -27.86329,-12.7461 -1.12741,-0.14087 -2.02786,-0.0785 -3.10937,-0.16796 1.15703,-25.71251 5.91302,-45.12846 23.89648,-64.55079 40.67329,-43.9276 112.45223,-29.84552 139.95899,21.22657 6.89997,12.81124 8.5665,26.81561 8.97461,43.31054 -1.1658,0.0928 -2.14371,0.0311 -3.36328,0.1836 -8.7353,1.09259 -19.41603,4.59246 -27.85547,12.73633 -9.79533,9.45225 -13.49632,21.89463 -14.50586,31.96093 -1.00954,10.0663 -0.13086,18.74249 -0.13086,25.12305 0,10.93823 -5.2756,31.36396 4.11328,52.44922 8.16757,18.34248 26.2178,25.8823 42.41797,28.42383 16.20016,2.54152 32.43904,1.10233 46.55273,-6.59571 11.08878,-6.04816 18.49302,-16.51364 21.54102,-26.23632 3.04799,-9.72269 3.00195,-18.54892 3.00195,-26.04102 v -52 c 0,-26.704 2.74535,-56.91999 -6.13086,-88.02539 C 389.4148,149.90963 331.16307,100.39168 263.68555,98.738281 Z"
       sodipodi:nodetypes="sssssssssssscssccsssssssssss" /><path
       style="baseline-shift:baseline;display:inline;overflow:visible;vector-effect:none;fill:#ffffff;stroke-linecap:square;stroke-linejoin:round;paint-order:stroke fill markers;enable-background:accumulate;stop-color:#000000"
       d="m 263.23747,117.0473 c -64.65602,-1.58426 -123.42992,36.72446 -142.2793,99.98438 -7.7403,25.97702 -5.7207,53.22626 -5.7207,80 v 57 c 0,13.57654 0.93098,26.88882 14,34.64648 17.12822,10.16721 54.28621,7.83445 63.86133,-11.64648 6.51812,-13.26135 3.13867,-32.57935 3.13867,-47 0,-14.81415 2.67852,-31.58261 -9.04102,-42.90625 -10.20183,-9.85714 -23.90325,-8.09375 -36.95898,-8.09375 0,-36.34171 3.20139,-66.93809 29.16992,-94.98438 49.26738,-53.20932 136.32533,-36.65127 169.52149,24.98438 11.95838,22.20325 11.30859,45.59512 11.30859,70 -13.06213,0 -26.74847,-1.75915 -36.95898,8.09375 -11.94687,11.52845 -9.04102,28.797 -9.04102,43.90625 0,13.76141 -3.18207,32.17358 2.5293,45 9.00958,20.23343 45.90527,22.77994 63.4707,13.19922 14.22729,-7.76001 15,-21.87357 15,-36.19922 v -52 c 0,-27.6991 2.25757,-56.06796 -5.42773,-83 C 374.02468,162.71533 321.76219,118.48133 263.23747,117.0473 Z"
       id="path4" /></g></svg>
