<?xml version="1.0" encoding="UTF-8" standalone="no"?>
<svg
   id="Layer_1"
   data-name="Layer 1"
   viewBox="0 0 24 24"
   width="512"
   height="512"
   version="1.1"
   xmlns="http://www.w3.org/2000/svg"
   xmlns:svg="http://www.w3.org/2000/svg">
  <defs
     id="defs2" />
  <path
     id="path2"
     style="fill:#000000;stroke-width:1.73714;stroke-linecap:square;stroke-linejoin:round;paint-order:stroke fill markers"
     d="M 12 0 A 12 12 0 0 0 0 12 A 12 12 0 0 0 12 24 A 12 12 0 0 0 24 12 A 12 12 0 0 0 12 0 z M 6.3457031 4.4609985 L 10.74353 4.4609985 L 10.74353 19.539001 L 6.3457031 19.539001 L 6.3457031 4.4609985 z M 13.25647 4.4609985 L 17.654297 4.4609985 L 17.654297 19.539001 L 13.25647 19.539001 L 13.25647 4.4609985 z " />
  <path
     d="M 8.5355225,4.44114 A 2.2046675,2.2046675 0 0 0 6.330855,6.6458075 V 17.354192 a 2.2046675,2.2046675 0 0 0 4.409335,0 V 6.6458075 A 2.2046675,2.2046675 0 0 0 8.5355225,4.44114 Z"
     id="path1"
     style="display:none;fill:#f9f9f9;stroke-width:0.629905" />
  <path
     d="M 15.464477,4.44114 A 2.2046675,2.2046675 0 0 0 13.25981,6.6458075 V 17.354192 a 2.2046675,2.2046675 0 0 0 4.409335,0 V 6.6458075 A 2.2046675,2.2046675 0 0 0 15.464477,4.44114 Z"
     id="path2-3"
     style="display:none;fill:#f9f9f9;stroke-width:0.629905" />
</svg>
