<?xml version="1.0" encoding="UTF-8" standalone="no"?>
<svg
   id="Layer_1"
   data-name="Layer 1"
   viewBox="0 0 24 24"
   width="512"
   height="512"
   version="1.1"
   xmlns="http://www.w3.org/2000/svg"
   xmlns:svg="http://www.w3.org/2000/svg">
  <defs
     id="defs1" />
  <path
     id="path2"
     style="fill:#000000;stroke-width:1.73714;stroke-linecap:square;stroke-linejoin:round;paint-order:stroke fill markers"
     d="M 12 0 A 12 12 0 0 0 0 12 A 12 12 0 0 0 12 24 A 12 12 0 0 0 24 12 A 12 12 0 0 0 12 0 z M 7.6203003 3.9697266 L 19.82016 12.104645 C 19.82016 12.104645 9.4517463 18.798962 7.6203003 20.26474 L 7.6203003 3.9697266 z " />
  <path
     id="path1-7"
     style="display:none;fill:#ffffff;fill-opacity:1;stroke-width:0.627195"
     d="m 8.3213209,4.2464139 c -0.6033502,0.00826 -1.38511,0.5908842 -1.5668854,0.8800595 -0.1817755,0.2891752 -0.2909597,13.3801236 0,13.8429936 0.2909596,0.46287 1.7684964,1.119334 2.6062892,0.584018 v 0.0011 l 9.2466943,-5.926378 c 1.172009,-0.736725 1.174023,-2.444153 0.0037,-3.183627 L 9.3607247,4.5388709 v 7.332e-4 C 9.0465737,4.3391671 8.6833311,4.2414597 8.3213209,4.2464139 Z" />
</svg>
